<svg xmlns="http://www.w3.org/2000/svg" viewBox="0 0 1693.44 458.86"><defs><style>.cls-1{fill:#212529;}</style></defs><g id="Capa_2" data-name="Capa 2"><g id="Capa_1-2" data-name="Capa 1"><path class="cls-1" d="M178.63,30.08q29.84,29.55,29.82,71.77V357q0,42-29.82,71.78t-71.77,29.81H0V0H106.86Q148.56,0,178.63,30.08ZM75.47,75.73v307.4h31.39a24.87,24.87,0,0,0,18.22-7.65A25.24,25.24,0,0,0,132.74,357V101.85a25.2,25.2,0,0,0-7.66-18.47,24.34,24.34,0,0,0-18.22-7.65Z"/><path class="cls-1" d="M845.79,0V458.59H770.34V0Z"/><path class="cls-1" d="M1205.77,458.59H897.58V0h75.47V383.13h232.72Z"/><path class="cls-1" d="M1205.77,331.17H1025V0h75.47V255.7h105.28Z"/><path class="cls-1" d="M1663.62,30.08q29.84,29.82,29.82,71.77V357q0,41.7-29.82,71.78-29.8,29.82-71.77,29.81-42.48,0-71.76-29.81Q1490.26,399,1490.27,357V101.85q0-42.21,29.82-71.77Q1549.63,0,1591.85,0,1633.54,0,1663.62,30.08Zm-90.24,53.3a25.16,25.16,0,0,0-7.64,18.47V357a25.19,25.19,0,0,0,7.64,18.48,25.73,25.73,0,0,0,18.47,7.65q10,0,18.21-7.65A25.19,25.19,0,0,0,1617.7,357V101.85a25.15,25.15,0,0,0-7.64-18.47,24.85,24.85,0,0,0-18.21-7.65A25.16,25.16,0,0,0,1573.38,83.38Z"/><polygon class="cls-1" points="1257.55 0 1257.55 458.59 1438.3 458.59 1438.3 383.13 1333.03 383.13 1333.03 267.03 1395.57 267.03 1395.57 191.56 1333.03 191.56 1333.03 75.73 1438.3 75.73 1438.3 0 1257.55 0"/><path class="cls-1" d="M361.87,0q-42.21,0-71.76,30.08-29.83,29.55-29.83,71.77v357h75.48V267.29h52V458.86h75.74v-357q0-42-29.82-71.77Q403.56,0,361.87,0ZM335.76,191.83v-90a26.08,26.08,0,0,1,26.11-26.12,24.87,24.87,0,0,1,18.21,7.65,25.15,25.15,0,0,1,7.64,18.47v90Z"/><polygon class="cls-1" points="643.06 0 643.06 187.78 590.74 0 515.29 0 515.29 458.59 590.74 458.59 590.74 270.81 643.06 458.59 718.51 458.59 718.51 0 643.06 0"/></g></g></svg>